<svg width="16" height="30" viewBox="0 0 16 30" fill="none" xmlns="http://www.w3.org/2000/svg">
<path d="M6.15767 15.708C6.06647 15.6151 5.99413 15.5047 5.94476 15.3833C5.8954 15.2618 5.86998 15.1315 5.86998 15C5.86998 14.8685 5.8954 14.7382 5.94476 14.6167C5.99413 14.4953 6.06647 14.3849 6.15767 14.292L15.139 5.12217C15.6901 4.55965 15.9998 3.79661 16 3.00091C16.0002 2.20521 15.6908 1.44202 15.14 0.879239C14.5892 0.316459 13.842 0.000187623 13.0628 8.34508e-08C12.2836 -0.000187456 11.5363 0.315724 10.9852 0.878239L2.00384 10.0501C0.720613 11.3641 0 13.1442 0 15C0 16.8558 0.720613 18.6359 2.00384 19.9499L10.9852 29.1218C11.5363 29.6843 12.2836 30.0002 13.0628 30C13.842 29.9998 14.5892 29.6835 15.14 29.1208C15.6908 28.558 16.0002 27.7948 16 26.9991C15.9998 26.2034 15.6901 25.4403 15.139 24.8778L6.15767 15.708Z" fill="black"/>
</svg>
